<svg xmlns="http://www.w3.org/2000/svg" xmlns:xlink="http://www.w3.org/1999/xlink" viewBox="0 0 1015.75 1012"><defs><style>.cls-1{fill:#3f3d3d;}.cls-2{opacity:0.2;}.cls-3{clip-path:url(#clip-path);}.cls-4{clip-path:url(#clip-path-2);}.cls-5{clip-path:url(#clip-path-3);}.cls-6{clip-path:url(#clip-path-4);}.cls-7{clip-path:url(#clip-path-5);}</style><clipPath id="clip-path"><path class="cls-1" d="M337.69,883.77c-4.78.1-10.05.45-12.82,7-2.53,5.84-1.13,9.88,4.55,12.33,9.43,4,18.16-1.73,22-10.6l3.87-9Z"/></clipPath><clipPath id="clip-path-2"><path class="cls-1" d="M761,836.38c-2.2,4.24-4.35,9.07.06,14.63,4,4.93,8.19,5.63,13,1.78,8-6.41,7.07-16.82,1.05-24.4L769,820.71Z"/></clipPath><clipPath id="clip-path-3"><path class="cls-1" d="M524.85,893.45c5.47-9.78,13.29-16.44,25-17.32,13.26-1,22,6.34,23.23,22.58l2.45,32.52c.36,4.37,2.31,5.88,9.51,5.32l5.41-.4.75,9.92-43.94,3.35-.78-9.94,3.63-.27c6.32-.49,8-2.27,7.67-6.63l-2.37-31.31c-.86-11.27-7.07-13.21-14.29-12.67s-16.26,8.95-15.53,18.56l2.1,27.72c.34,4.34,2.27,5.86,6.48,5.55L540,940l.75,9.94-44.24,3.36-.75-9.93,8.57-.65c4.25-.34,5.89-2.11,5.61-6.46l-2.79-36.44c-.51-6.47-2.43-8-10.24-7.4l-5,.37-.74-9.91,32.36-2.46,1,13.1ZM403.24,922.92l6.28-36c1.13-6.37-.37-8.32-8.11-9.67l-4.91-.86,1.71-9.84,32,5.61-2.26,12.94.3.06c7.71-8.2,16.92-12.7,28.53-10.64,13.09,2.26,19.74,11.56,16.91,27.61l-5.59,32.14c-.75,4.32.74,6.28,7.87,7.51l5.35.93-1.7,9.83-43.45-7.63,1.76-9.81,3.56.65c6.23,1.07,8.31-.24,9.08-4.53l5.39-31c1.94-11.14-3.59-14.55-10.73-15.8s-18,4.66-19.65,14.18L420.79,926c-.76,4.31.75,6.27,4.9,7l5.8,1-1.71,9.81L386,936.15l1.73-9.82,8.48,1.5a14.28,14.28,0,0,0,1.94.18c2.89,0,4.42-1.52,5.05-5.09m182-49.62,29.78-7.91,14,52.84c1.12,4.24,3.28,5.36,7.38,4.29l7.14-1.9,2.55,9.63-42.74,11.34L600.84,932l6.73-1.81c4.09-1,5.4-3.14,4.29-7.38L602,885.41c-1.12-4.23-3.28-5.35-7.38-4.25l-6.72,1.77ZM329.23,866c-6-2.53-8-8.84-5.59-14.55,6.09-14.14,24.32-9.91,35.25-5.22,18.74,8,23.16,20,18.15,31.63l-14.59,33.94c-1.33,3-.72,5.1,1.36,6s4.55-.33,8.28-8.91l2.25-5.29,8.89,3.82-1.79,4.13C374.79,927.13,365.75,931,354.08,926c-6.94-3-11.64-8.45-9.6-16.27-8.46,5.58-18.42,4.24-27.13.5-10.84-4.65-17.09-13.4-11.74-25.9C311.78,870,324.92,872,337.1,874.16c10.65,1.86,20.56,3.72,24.46-5.43,3.8-8.85-2.95-13.75-10.31-16.9-3.87-1.68-10.92-3.23-14.86-1,5.44,1.53,8.51,5.48,6.06,11.17-1.68,3.89-4.31,5.39-7.4,5.39a14.88,14.88,0,0,1-5.82-1.4m259.61-14.74a10.87,10.87,0,1,1,13.3,7.7,10.53,10.53,0,0,1-2.76.37,10.91,10.91,0,0,1-10.54-8.07m74.32,10.88C664.7,851,669.6,842,680.24,836.93c12-5.72,22.81-2,29.81,12.72l14.08,29.43c1.88,3.94,4.24,4.65,10.76,1.56l4.91-2.37,4.32,9-39.83,19-4.29-9,3.28-1.58c5.75-2.71,6.64-5,4.75-8.94l-13.52-28.34c-4.9-10.21-11.36-9.81-17.94-6.68s-11.92,14.23-7.77,23l12,25.06c1.88,4,4.22,4.66,8.06,2.85l5.31-2.53,4.28,8.95-40,19.15-4.28-9,7.73-3.71c3.83-1.83,4.75-4.09,2.86-8l-15.75-33c-2.81-5.84-5.12-6.58-12.22-3.18l-4.5,2.15-4.29-9,29.29-14,5.66,11.84Zm62.7-28.67c-9.59-12.07,2.75-26.12,12.06-33.54,16-12.69,28.53-11,36.48-1.05l23,28.93c2.07,2.61,4.16,3.06,5.94,1.63s1.87-4.18-4-11.51l-3.57-4.49,7.58-6,2.79,3.53c10.55,13.22,9.64,23-.27,30.88-5.89,4.72-13,6.32-18.85.79.88,10.11-5,18.25-12.45,24.18-9.19,7.32-19.88,8.7-28.35-1.94-18.26-22.92,26-40,12.76-56.67-6-7.57-13.53-3.89-19.81,1.12-3.27,2.61-8,8.1-7.84,12.62,3.88-4.08,8.8-4.92,12.66-.05,4.23,5.29,1.88,9.87-2.71,13.54a10.81,10.81,0,0,1-6.76,2.45,11.25,11.25,0,0,1-8.71-4.42m-496.21-.92,21.62-29.46c3.83-5.23,3.38-7.64-3-12.3l-4-2.9,5.91-8.08L276.34,799l-7.76,10.58.24.19c10.54-3.89,20.79-3.84,30.28,3.12,10.72,7.87,12.58,19.12,2.93,32.27l-19.29,26.29c-2.6,3.53-2.12,6,3.72,10.25l4.4,3.21L285,893l-35.53-26.09,5.89-8,2.91,2.13c5.11,3.77,7.55,3.49,10.15-.06L287,835.64c6.69-9.12,3.24-14.63-2.6-18.93s-18.2-3.79-23.91,4L244,843.11c-2.56,3.53-2.1,5.93,1.31,8.43l4.76,3.47-5.89,8-35.79-26.25,5.9-8,6.92,5.11a7.17,7.17,0,0,0,4,1.65c1.56,0,3-.95,4.43-3M182.14,506c0-180.93,146.68-327.63,327.55-327.63S837.36,325.05,837.36,506,690.69,833.59,509.69,833.59,182.14,686.93,182.14,506M35.82,506c0,261.33,212.61,473.92,473.87,473.92s474-212.59,474-473.92S771.08,32.06,509.69,32.06,35.82,244.67,35.82,506"/></clipPath><clipPath id="clip-path-4"><path class="cls-1" d="M442.44,419.23h-1.16V368.57H328.54v28h38.78c19.7,0,23.86,9,23.86,27.47V592.19c0,18.48-4.16,27.43-23.86,27.43H328.54v28H502.11v-28H465.72c-19.67,0-23.9-9-23.9-27.43V486.06c0-47.74,33.46-93.06,90.09-93.06,46,0,61.44,24.46,61.44,65.63V592.19c0,18.48-4.19,27.43-23.86,27.43h-32.8v28h167v-28H667.9c-19.71,0-23.87-9-23.87-27.43V462.76c0-62-33.38-103.17-96-103.17-45.89,0-81.69,22.09-105.56,59.64"/></clipPath><clipPath id="clip-path-5"><path class="cls-1" d="M25.28,506c0-267.14,217.33-484.46,484.41-484.46S994.19,238.84,994.19,506,776.87,990.4,509.69,990.4,25.28,773.11,25.28,506M3.75,506c0,279.46,226.54,506,505.94,506s506.06-226.54,506.06-506S789.21,0,509.69,0,3.75,226.53,3.75,506"/></clipPath></defs><title>Nannina circle beige</title><g id="Full_Length_Page" data-name="Full Length Page"><g class="cls-2"><path class="cls-1" d="M337.69,883.77c-4.78.1-10.05.45-12.82,7-2.53,5.84-1.13,9.88,4.55,12.33,9.43,4,18.16-1.73,22-10.6l3.87-9Z"/><g class="cls-3"><polygon class="cls-1" points="310.71 897.46 335.78 867.25 366.88 893.08 341.85 923.28 310.71 897.46"/></g><path class="cls-1" d="M761,836.38c-2.2,4.24-4.35,9.07.06,14.63,4,4.93,8.19,5.63,13,1.78,8-6.41,7.07-16.82,1.05-24.4L769,820.71Z"/><g class="cls-4"><polygon class="cls-1" points="738.98 842 767.02 808.22 799.76 835.4 771.73 869.17 738.98 842"/></g><path class="cls-1" d="M524.85,893.45c5.47-9.78,13.29-16.44,25-17.32,13.26-1,22,6.34,23.23,22.58l2.45,32.52c.36,4.37,2.31,5.88,9.51,5.32l5.41-.4.75,9.92-43.94,3.35-.78-9.94,3.63-.27c6.32-.49,8-2.27,7.67-6.63l-2.37-31.31c-.86-11.27-7.07-13.21-14.29-12.67s-16.26,8.95-15.53,18.56l2.1,27.72c.34,4.34,2.27,5.86,6.48,5.55L540,940l.75,9.94-44.24,3.36-.75-9.93,8.57-.65c4.25-.34,5.89-2.11,5.61-6.46l-2.79-36.44c-.51-6.47-2.43-8-10.24-7.4l-5,.37-.74-9.91,32.36-2.46,1,13.1ZM403.24,922.92l6.28-36c1.13-6.37-.37-8.32-8.11-9.67l-4.91-.86,1.71-9.84,32,5.61-2.26,12.94.3.06c7.71-8.2,16.92-12.7,28.53-10.64,13.09,2.26,19.74,11.56,16.91,27.61l-5.59,32.14c-.75,4.32.74,6.28,7.87,7.51l5.35.93-1.7,9.83-43.45-7.63,1.76-9.81,3.56.65c6.23,1.07,8.31-.24,9.08-4.53l5.39-31c1.94-11.14-3.59-14.55-10.73-15.8s-18,4.66-19.65,14.18L420.79,926c-.76,4.31.75,6.27,4.9,7l5.8,1-1.71,9.81L386,936.15l1.73-9.82,8.48,1.5a14.28,14.28,0,0,0,1.94.18c2.89,0,4.42-1.52,5.05-5.09m182-49.62,29.78-7.91,14,52.84c1.12,4.24,3.28,5.36,7.38,4.29l7.14-1.9,2.55,9.63-42.74,11.34L600.84,932l6.73-1.81c4.09-1,5.4-3.14,4.29-7.38L602,885.41c-1.12-4.23-3.28-5.35-7.38-4.25l-6.72,1.77ZM329.23,866c-6-2.53-8-8.84-5.59-14.55,6.09-14.14,24.32-9.91,35.25-5.22,18.74,8,23.16,20,18.15,31.63l-14.59,33.94c-1.33,3-.72,5.1,1.36,6s4.55-.33,8.28-8.91l2.25-5.29,8.89,3.82-1.79,4.13C374.79,927.13,365.75,931,354.08,926c-6.94-3-11.64-8.45-9.6-16.27-8.46,5.58-18.42,4.24-27.13.5-10.84-4.65-17.09-13.4-11.74-25.9C311.78,870,324.92,872,337.1,874.16c10.65,1.86,20.56,3.72,24.46-5.43,3.8-8.85-2.95-13.75-10.31-16.9-3.87-1.68-10.92-3.23-14.86-1,5.44,1.53,8.51,5.48,6.06,11.17-1.68,3.89-4.31,5.39-7.4,5.39a14.88,14.88,0,0,1-5.82-1.4m259.61-14.74a10.87,10.87,0,1,1,13.3,7.7,10.53,10.53,0,0,1-2.76.37,10.91,10.91,0,0,1-10.54-8.07m74.32,10.88C664.7,851,669.6,842,680.24,836.93c12-5.72,22.81-2,29.81,12.72l14.08,29.43c1.88,3.94,4.24,4.65,10.76,1.56l4.91-2.37,4.32,9-39.83,19-4.29-9,3.28-1.58c5.75-2.71,6.64-5,4.75-8.94l-13.52-28.34c-4.9-10.21-11.36-9.81-17.94-6.68s-11.92,14.23-7.77,23l12,25.06c1.88,4,4.22,4.66,8.06,2.85l5.31-2.53,4.28,8.95-40,19.15-4.28-9,7.73-3.71c3.83-1.83,4.75-4.09,2.86-8l-15.75-33c-2.81-5.84-5.12-6.58-12.22-3.18l-4.5,2.15-4.29-9,29.29-14,5.66,11.84Zm62.7-28.67c-9.59-12.07,2.75-26.12,12.06-33.54,16-12.69,28.53-11,36.48-1.05l23,28.93c2.07,2.61,4.16,3.06,5.94,1.63s1.87-4.18-4-11.51l-3.57-4.49,7.58-6,2.79,3.53c10.55,13.22,9.64,23-.27,30.88-5.89,4.72-13,6.32-18.85.79.88,10.11-5,18.25-12.45,24.18-9.19,7.32-19.88,8.7-28.35-1.94-18.26-22.92,26-40,12.76-56.67-6-7.57-13.53-3.89-19.81,1.12-3.27,2.61-8,8.1-7.84,12.62,3.88-4.08,8.8-4.92,12.66-.05,4.23,5.29,1.88,9.87-2.71,13.54a10.81,10.81,0,0,1-6.76,2.45,11.25,11.25,0,0,1-8.71-4.42m-496.21-.92,21.62-29.46c3.83-5.23,3.38-7.64-3-12.3l-4-2.9,5.91-8.08L276.34,799l-7.76,10.58.24.19c10.54-3.89,20.79-3.84,30.28,3.12,10.72,7.87,12.58,19.12,2.93,32.27l-19.29,26.29c-2.6,3.53-2.12,6,3.72,10.25l4.4,3.21L285,893l-35.53-26.09,5.89-8,2.91,2.13c5.11,3.77,7.55,3.49,10.15-.06L287,835.64c6.69-9.12,3.24-14.63-2.6-18.93s-18.2-3.79-23.91,4L244,843.11c-2.56,3.53-2.1,5.93,1.31,8.43l4.76,3.47-5.89,8-35.79-26.25,5.9-8,6.92,5.11a7.17,7.17,0,0,0,4,1.65c1.56,0,3-.95,4.43-3M182.14,506c0-180.93,146.68-327.63,327.55-327.63S837.36,325.05,837.36,506,690.69,833.59,509.69,833.59,182.14,686.93,182.14,506M35.82,506c0,261.33,212.61,473.92,473.87,473.92s474-212.59,474-473.92S771.08,32.06,509.69,32.06,35.82,244.67,35.82,506"/><g class="cls-5"><polygon class="cls-1" points="-430 593.29 422.45 -433.78 1449.49 418.68 597.03 1445.72 -430 593.29"/></g><path class="cls-1" d="M442.44,419.23h-1.16V368.57H328.54v28h38.78c19.7,0,23.86,9,23.86,27.47V592.19c0,18.48-4.16,27.43-23.86,27.43H328.54v28H502.11v-28H465.72c-19.67,0-23.9-9-23.9-27.43V486.06c0-47.74,33.46-93.06,90.09-93.06,46,0,61.44,24.46,61.44,65.63V592.19c0,18.48-4.19,27.43-23.86,27.43h-32.8v28h167v-28H667.9c-19.71,0-23.87-9-23.87-27.43V462.76c0-62-33.38-103.17-96-103.17-45.89,0-81.69,22.09-105.56,59.64"/><g class="cls-6"><polygon class="cls-1" points="186.97 530.16 481.55 175.23 845.22 477.1 550.65 832.01 186.97 530.16"/></g><path class="cls-1" d="M25.28,506c0-267.14,217.33-484.46,484.41-484.46S994.19,238.84,994.19,506,776.87,990.4,509.69,990.4,25.28,773.11,25.28,506M3.75,506c0,279.46,226.54,506,505.94,506s506.06-226.54,506.06-506S789.21,0,509.69,0,3.75,226.53,3.75,506"/><g class="cls-7"><polygon class="cls-1" points="-493.6 599.16 416.54 -497.37 1513.11 412.76 602.97 1509.34 -493.6 599.16"/></g></g></g></svg>